<svg xmlns="http://www.w3.org/2000/svg" xmlns:xlink="http://www.w3.org/1999/xlink" viewBox="0 0 80 80"><defs><style>.cls-1{fill:url(#linear-gradient);}.cls-2{fill:#fff;}</style><linearGradient id="linear-gradient" x1="0.21" y1="40" x2="80.43" y2="40" gradientUnits="userSpaceOnUse"><stop offset="0" stop-color="#274bf7"/><stop offset="1" stop-color="#209df9"/></linearGradient></defs><g id="Layer_2" data-name="Layer 2"><g id="Layer_1-2" data-name="Layer 1"><rect class="cls-1" width="80" height="80" rx="20"/><path class="cls-2" d="M46,36.74,40,49.11,34,36.74l6-12.37L39,35.16a1.83,1.83,0,0,0-.89,1.58,1.85,1.85,0,1,0,3.7,0A1.83,1.83,0,0,0,41,35.16L40,24.37Z"/><path class="cls-2" d="M38.61,52.41l-6,12.28a.37.37,0,0,1-.67,0l-22-45a.37.37,0,0,1,.33-.54h12a.39.39,0,0,1,.34.21l16,32.77A.38.38,0,0,1,38.61,52.41Z"/><path class="cls-2" d="M70,19.64,48.27,64.25a.38.38,0,0,1-.68,0L41.61,52a.32.32,0,0,1,0-.33L57.37,19.31a.39.39,0,0,1,.34-.21h12A.37.37,0,0,1,70,19.64Z"/></g></g></svg>