<svg id="Layer_1" data-name="Layer 1" xmlns="http://www.w3.org/2000/svg" xmlns:xlink="http://www.w3.org/1999/xlink" width="100" height="100" viewBox="0 0 100 100"><defs><linearGradient id="linear-gradient" x1="-75.73" y1="177.23" x2="-75.73" y2="178.23" gradientTransform="matrix(100, 0, 0, -100, 7623, 17823.18)" gradientUnits="userSpaceOnUse"><stop offset="0" stop-color="#1d79f1"/><stop offset="1" stop-color="#19a1fb"/></linearGradient></defs><title>ic_recruit_48px</title><path d="M100,31.28c0-1.2,0-2.39,0-3.58,0-1,0-2,0-3a43.94,43.94,0,0,0-.58-6.57,21.9,21.9,0,0,0-2.06-6.24,21,21,0,0,0-9.18-9.18A21.9,21.9,0,0,0,81.89.63,43.82,43.82,0,0,0,75.32.05c-1,0-2,0-3,0H27.7c-1,0-2,0-3,0a43.82,43.82,0,0,0-6.57.58,21.9,21.9,0,0,0-6.24,2.06,21,21,0,0,0-9.18,9.18A21.9,21.9,0,0,0,.63,18.11a43.82,43.82,0,0,0-.58,6.57c0,1,0,2,0,3,0,1.19,0,2.39,0,3.58V68.72c0,1.19,0,2.39,0,3.58,0,1,0,2,0,3a43.94,43.94,0,0,0,.58,6.57,21.8,21.8,0,0,0,2.06,6.24,20.94,20.94,0,0,0,9.18,9.18,21.9,21.9,0,0,0,6.24,2.06,43.82,43.82,0,0,0,6.57.58c1,0,2,0,3,0H72.3c1,0,2,0,3,0a43.82,43.82,0,0,0,6.57-.58,21.9,21.9,0,0,0,6.24-2.06,20.94,20.94,0,0,0,9.18-9.18,21.8,21.8,0,0,0,2.06-6.24,43.82,43.82,0,0,0,.58-6.57c0-1,0-2,0-3,0-1.19,0-2.39,0-3.58Z" style="fill:url(#linear-gradient)"/><path d="M49.34,32a9.9,9.9,0,0,0-9.9,9.9h0a9.9,9.9,0,0,0,9.9,9.9h0a9.9,9.9,0,0,0,9.9-9.9h0a9.9,9.9,0,0,0-9.9-9.9Z" style="fill:#fff"/><path d="M52.83,54.71H46.18A17.05,17.05,0,0,0,31.28,64a23.12,23.12,0,0,0,36.19-.48A17.07,17.07,0,0,0,52.83,54.71Z" style="fill:#fff"/><path d="M87.91,75.17l-10-8.6a33.14,33.14,0,1,0-8.51,9.8l1.83,1.57,8.13,7a6.25,6.25,0,0,0,4.08,1.52h.45a6.25,6.25,0,0,0,4.27-2.13l.33-.38A6.24,6.24,0,0,0,87.91,75.17ZM49.19,77.79a27.65,27.65,0,1,1,0-55.3h0a27.65,27.65,0,0,1,0,55.3Z" style="fill:#fff"/></svg>